<svg id="Слой_1" data-name="Слой 1" xmlns="http://www.w3.org/2000/svg" viewBox="0 0 984.46 444.45"><defs><style>.cls-1{fill:#885eb7;}</style></defs><path class="cls-1" d="M97.3,222.35c17.94-.21,37.3-.58,59.19-1.13,1.73,0,3.28,0,4.74,0a30.1,30.1,0,0,0,8.79-.66l.89-.1h9.33c4.48,0,7.74,0,11-.75l.32-.06c24.2-3.46,40.48-12.31,57.48-24.54,16.44-11.82,26.14-24.47,30.54-39.81a295,295,0,0,0,8-37.1c4-26.41-1.37-50.67-16-72.11-6.54-9.58-15.3-17.25-23.79-24.11A68.3,68.3,0,0,0,218.5,7.82c-9.07-1.91-21-4.31-33-5.83C167.36-.31,148.69-.09,130.63.13l-5.49.06c-.41,0-1.28,0-2.37-.06-1.59-.06-5.31-.19-6.17-.08l-.43.11-.27,0c-6.24.07-10.4.27-14.42.46C97.17.79,93.1,1,87.06,1H61.9a32.59,32.59,0,0,1-5,0,31.52,31.52,0,0,0-3.3,0c-2.79.27-5.47.34-8.07.41s-5.36.13-8,.43l-.29,0h-.29c-6-.24-10.17-.17-15-.09-2.76,0-5.74.09-9.41.09l-.5,0a12.33,12.33,0,0,0-2.2,0c-.52,0-1,0-1.53,0H2.37c-.36,0-.69,0-1,0C-.41,11.33-.07,20.88.29,31Q.4,34,.49,37.09c.16,5.94.6,12,1,17.89C2,62.26,2.58,69.79,2.62,77.29c0,1.58,0,3.16,0,4.75a111.88,111.88,0,0,0,.32,12.24C4.62,111.57,4.3,129.06,4,146c-.15,8.4-.31,17.08-.21,25.59.07,5.86-.29,11.76-.63,17.47s-.69,11.49-.61,17.18c.06,4.62.06,9.24.07,13.86,0,9,0,18.35.46,27.48a233.46,233.46,0,0,1-.52,24.31C2.26,277,2,282.32,1.91,287.5c-.15,13.4-.21,26.79-.27,40.18-.11,23.75-.22,48.3-.82,72.47,0,2.46,0,5,0,7.59,0,5.92-.07,12.05.1,18l0,2.33a87.71,87.71,0,0,0,.88,12.33l.05.61v1.13c0,.46,0,1,0,1.36,1.14,1.32,6.43.9,9.06.68.75-.06,1.47-.12,2.15-.16,5.29-.32,10.34-.15,15.22,0s9.57.32,14.52,0c2.58-.16,5.26-.17,7.86-.18,2.8,0,5.7,0,8.51-.22a30.71,30.71,0,0,1,5-.39c.57,0,1.07,0,1.45-.05a54.12,54.12,0,0,1,7.17.08,40.33,40.33,0,0,0,7.75,0,4.57,4.57,0,0,0,1.79-.55,16.14,16.14,0,0,0,.09-3.2c0-1.15,0-2.42,0-3.82.23-5.5.4-11,.56-16.51q.14-4.83.3-9.68l.14-4.28c.27-7.89.53-15.77.86-23.65s.73-15.53,1.12-23.29c.83-16.3,1.69-33.16,1.87-49.7.1-9.53.29-19.06.48-28.58.33-15.86.66-32.27.53-48.38C88.2,225.56,91.24,222.43,97.3,222.35ZM85.87,153.2c-.13-4.07-.16-8.14-.18-12.22,0-6.79-.09-13.82-.66-20.62a281.72,281.72,0,0,1-.21-44.23c.18-2.34.73-9.46,9.41-8.91a12.49,12.49,0,0,0,4.14-.45l.48-.15h.51c4.16-.1,8.24-.39,12.18-.67a133.55,133.55,0,0,1,19.62-.45c18.55-.88,32-1.21,48.42,1.94,14.52,2.79,25.3,9.13,33,19.36a18.77,18.77,0,0,1,4.12,10.59c.38,8,.8,17.1-1.65,26-3.16,11.49-9.54,19-19.5,23-3.83,1.53-7.68,3.31-11.41,5-3.31,1.54-6.73,3.13-10.2,4.57-13,5.38-26.39,6.69-39.33,6.69-3.1,0-6.17-.08-9.21-.19a142,142,0,0,1-15.87-.2c-3.78-.2-7.69-.4-11.48-.34C90.76,162.09,86,158.6,85.87,153.2Z"/><path class="cls-1" d="M643.13,172.12c0-1.69,0-3,0-3.85,0-2.63-.45-4.43-1.46-5.34-1.18-1.08-3.57-1.44-7.11-1.05-4.76.51-9.59.41-16.92.25-4.88-.1-11-.23-19-.23-6.18,0-12.24-.08-18.24-.16-10.63-.13-20.68-.26-31.16,0-14.59.4-29.4.43-43.72.47-19.21.05-39.08.11-58.6,1-19.75-.31-38.15-.12-55.94.05-11.19.12-22.76.21-34.4.22-1.23,0-2.47-.1-3.7-.21-.9-.07-1.8-.15-2.71-.17-11.54-.26-25.26-.67-38.79-1.18-.12,1-.17,2.26-.2,3.08,0,1.1-.08,2.12-.18,2.91a215.86,215.86,0,0,0-1.4,26c-.05,4.06-.1,8.23-.27,12.67,0,.58-.06,1.09-.11,1.56,11.73,2.66,23.52,2.31,36,1.94l4.43-.13,6.6.23c8.85.32,15.85.58,23.7.16,18.58-1,37-.89,54.84-.79l4.86,0c6.69-.76,8.41,2,9,6.66.05.4.1.84.18,1.32l0,.57q0,14.15,0,28.3c0,22.75,0,46.28.35,69.4.08,4.86.19,9.72.3,14.57.29,12,.58,24.46.32,36.72-.24,11.24.12,23.65.47,35.65.35,12.31.72,25.05.45,36.67,0,.85,0,1.46,0,1.9l.83,0c.94,0,2.06.08,3.39.19a134.74,134.74,0,0,0,15.58.14c2.65-.08,5.26-.15,7.8-.15l.38,0a139.34,139.34,0,0,0,15.69.11c2.45-.06,4.78-.12,6.79-.13.86,0,1.55,0,2.17,0,0-.21,0-.41,0-.61l0-.68c.07-2.7.18-5.4.28-8.1.28-7.13.57-14.51.27-21.66-.41-9.57-.5-19.27-.59-28.64,0-3.88-.08-7.77-.13-11.65-.07-4.36-.2-8.76-.32-13.15-.18-6.15-.36-12.51-.36-18.53-.57-10.7-.38-21.26-.19-31.47.09-5.06.19-10.08.19-15.11V256.41c-.25-5.36-.16-11.2-.08-16.84,0-2.66.08-5.26.08-7.73,0-1.06,0-2.47,0-4,0-2.58,0-5.48,0-7.46l0-.85c-.09-2.24-.23-5.64,2-8a6.77,6.77,0,0,1,5-2.05h0c2.63,0,5.78.21,8.84.43a92.67,92.67,0,0,0,9.68.42,106.43,106.43,0,0,1,14.41.56,81.71,81.71,0,0,0,15.86.3l.37,0c8.9,0,17.91-.44,26.62-.86,8.53-.41,17.36-.83,25.9-.83,3.36,0,6.27,0,8.9.07,8.43.12,13.77.2,21.95-1.26a41.68,41.68,0,0,0,.14-8.4l0-.38.05-.38C643,194.52,643.09,179.39,643.13,172.12Z"/><path class="cls-1" d="M633.92,438.33c19.24-6.08,23.86-13.73,28-33.61,3.22-15.66,4.14-21,5.88-51a388.2,388.2,0,0,0-2.65-39.94,250.14,250.14,0,0,1-1.22-27.62c-.06-7.8-.11-15.87-.85-23.71-.9-9.68-1-11.3-1.24-21.17a16.17,16.17,0,0,0-.59-4.78c-9.56,1.06-18,.72-26.85.37-4.85-.2-9.87-.4-15.4-.4l-.89-.11a8.06,8.06,0,0,0-1.71-.26,13.73,13.73,0,0,0-.44,3.56l-.11,2.46c-.08,1.44-.1,1.87-.09,4.61,0,12.47.5,25.17,1,37.45.6,16,1.22,32.57.86,48.93a197.37,197.37,0,0,0,.46,21.16c.58,6.73.64,13.4.63,18.45,0,8.85-5.24,15.76-9.84,21.86l-.26.35c-10.35,13.74-30.21,13.69-40.37,9.34-4-1.71-8.25-4-9.5-7.74-1.81-4.52-1.89-5.81-1.89-10.5l.08-.73c.89-4.46,3.17-10.47,6.92-13.95,9-8.35,19.16-12.85,30.3-13.38a14,14,0,0,0,2.66-.31,11.15,11.15,0,0,0-.27-1.94c-1.94-9.17-2.13-18.44-2.32-27.4l-.29-13.65c-.44-20.15-.85-39.18-1.84-60.06l0-2.43c.08-3.86.29-13.33-.56-17.12a111.87,111.87,0,0,1-11.69.78c-3.72.13-7.57.27-11.33.61l-.3,0-.3,0c-6.24-.44-12.75-.66-19-.88-6-.2-12.2-.41-18.2-.81-1.59-.11-1.9.52-2,.8-.63,12.27-.13,26.23.35,39.72.13,3.51.25,6.94.35,10.24.43,14.5.87,29.48.08,44.49.47,7.47.48,14.37.49,21,0,6.41,0,13,.43,20.36v.14l0,1.74c-.29,12.33-.32,13.62.87,26.78,1.52,16.93,13.36,36.64,29.83,39l3.83.55c14.12,2,28.71,4.15,42.5,2,2.9-.45,6.41-.72,10.12-1C623.28,440.12,629.85,439.61,633.92,438.33Z"/><path class="cls-1" d="M897.71,238c-8.81,1.74-17.91,3.53-25.35,9.49-10.49,8.4-18.41,19.67-25.67,36.53a72.43,72.43,0,0,0-5.57,21c-1.2,11-2.33,24.1-1.7,37.44.08,3.16.1,6.24.12,9.31,0,5.52.06,11.23.47,16.8,1.86,25.62,2.88,39.72,21.19,57.06,3.34,3.17,10.58,6.89,19.87,10.21s25.13,2.84,36.74,2.49c2.46-.07,4.77-.14,6.83-.17,9.92-.14,21.19-4.48,33.52-12.9,9.34-6.38,11-9.33,15.36-17.21.82-1.46,1.71-3.07,2.75-4.87a97.93,97.93,0,0,0,3.1-16.61c.2-1.61.43-3.42.71-5.54l0-.79a11.48,11.48,0,0,0-.08-3.3,8.91,8.91,0,0,0-1.4-.12,11.12,11.12,0,0,0-1.2.06l-.66.06-.64-.17c-1.7-.27-15.83-.47-20.47-.54l-3.13-.05c-3.78-.11-7.08-.32-10-.51s-6-.38-7.52-.28a31.88,31.88,0,0,0-.77,3.1,26.6,26.6,0,0,1-1,3.76c-4,10.48-18.28,12.5-27.2,9.94-10.69-1.9-16.13-14.94-13.92-33.37a4.81,4.81,0,0,1,1.59-3.65c2.46-2.33,7.84-2.94,10.68-2.59,3.31-.39,10-.16,21,.26,7.9.3,16.9.71,24.66.63,9.24,0,16.87-.64,20.45-1.7,11.23-2.76,12.9-12.57,13.65-22.38.08-1,.15-2,.24-2.75v-2.11c0-7.32,0-14.25-.94-21.23-2-14.44-5.52-29.37-17-40.65a114.68,114.68,0,0,0-10.93-9.25C944.15,244.67,930.33,236,913.2,236a50.48,50.48,0,0,0-5.82.33c-2.78.31-5.54.86-8.46,1.44Zm14,46a21.4,21.4,0,0,1,16.11,5.55,17.1,17.1,0,0,1,5.68,12.35c.3,2.95-.41,7.22-2.73,9.91a7,7,0,0,1-5.16,2.52c-2.46,0-8,0-11,0H899.55a10.92,10.92,0,0,1-1.35.09,6.68,6.68,0,0,1-4.54-1.57c-2.49-2.17-2.4-5.54-2.35-7.35,0-.27,0-.51,0-.71v-.13C891.32,291.43,901.57,284.75,911.72,284Z"/><path class="cls-1" d="M115.2,355.22c-.19,12.73-.19,29.42,1.6,46.22,2.28,21.38,21.62,36.87,39,39.5a151.53,151.53,0,0,0,35.84,1.21c1.74-.15,3.49-.28,5.25-.4,8.58-.6,16.69-1.18,24.16-5a37.37,37.37,0,0,0,15-13.49c6.15-9.75,12.31-20.11,14.22-30.3,4.36-23.18,4.63-47,4.89-70.12.12-10.67.24-21.7.76-32.62.2-4.24.21-8.6.22-12.82,0-5.94,0-12.09.56-18.21a126.89,126.89,0,0,0-.06-17.66c0-.31,0-.56-.06-.77h-.66c-.89,0-1.92,0-3.09-.08a146.17,146.17,0,0,0-14.67-.05c-4.31.13-8.76.26-13.18.06-6-.27-11.74-.18-17.81-.08l-6.55.08c-.8,0-1.6,0-2.38-.09-.5,0-1.19-.08-1.69-.08.2,1.85.52,3.67.83,5.45a51.79,51.79,0,0,1,1,8.53l.36,2.86c.74,5.73,1.5,11.67,1.77,17.86.95,21.75,1.24,44.76.86,68.37l0,2.66c-.19,13.24-.37,25.74-4.85,38.47-1.63,4.63-8.19,6.9-12.11,6.67-4.44-.25-6.58-2.92-8.47-5.27-4.29-5.34-5.54-15.12-6.16-23.07-.57-7.32-.91-14.74-1.24-21.92q-.27-6-.59-12c-.23-4.25-.52-8.5-.8-12.75-.54-8-1.1-16.32-1.31-24.52-.39-15.56-.73-33.36-.3-47.44a19.3,19.3,0,0,0-.06-2.84c-.78,0-2,.12-3,.21-.79.07-1.65.15-2.6.22-6.89.5-14.43.88-23.74,1.18-1.6.05-3.13.12-4.64.18a131.36,131.36,0,0,1-18.83-.15,13.29,13.29,0,0,1-1.35.09c.16,2.77.25,6,.33,9.34.13,4.57.25,9.31.58,12.77l.28,2.95c1.26,13.19,2.57,26.83,2.75,40.39.13,9.84.11,19.89.07,30.52C115.22,344.34,115.2,349.62,115.2,355.22Z"/><path class="cls-1" d="M773.44,403.61c.49,5.61.64,12.94.79,20,.1,4.7.19,9.14.38,12.76a1.57,1.57,0,0,0,.53,1.09c3.7-.11,8.33-.08,12.73-.06,5.72,0,11.12.05,13.76-.13,1.21-.08,2.29-.11,3.28-.11,1.84,0,3.36.11,4.77.21a36.46,36.46,0,0,0,7.85-.08,19.8,19.8,0,0,1,3.48-.06c0-.14,0-.29,0-.46v-.27c.58-8.18.78-15.13,1-21.85.08-3,.17-6,.28-9.1.46-11.92.6-24.37.41-37-.06-4.11-.24-8.4-.41-12.54-.26-6.34-.53-12.9-.41-19.25h0c.39-20.26-.78-34.63-3.36-60.35-1.51-7.63-3.92-13.7-7.31-21-6-12-10.3-20.68-64.3-19.86h-.38c-4.4-.38-9.76-.34-14.95-.3-3.19,0-6.29,0-9.05,0a114.92,114.92,0,0,0-14.7.93c-7.64.82-15.54,1.66-23.48.2l-.28-.05c.19,9.24.33,18.48.48,27.72.28,18.52.58,37.67,1.3,56.48.25,6.64.58,13.29.9,19.86.91,18.55,1.78,36.08,1,51.9v13.21c0,8.91,0,16.61,0,24.31,0,4.35.38,5.36.61,5.57.63.6,4.46.94,6.3,1.1,6.66.59,13.71.54,20.51.49,6.31,0,12.85-.1,19.23.35,1.4.1,4.32.31,5-.06a6.61,6.61,0,0,0,.27-1.88l.1-2.62c.28-7.43.56-15.1.57-22.62,0-12.05-.45-24.34-.9-36.22-.57-14.88-1.17-30.28-.81-45.49.22-9,.11-17.17-.32-25.09v-.4a30.7,30.7,0,0,0-.41-6.72c-1-6.67,1.18-8.63,9.22-11.92a8.69,8.69,0,0,1,3.64-.65,27.57,27.57,0,0,0,3.22-.11c3.69-.27,8.74-.65,12.62,4.22,3.67,4.6,3.88,9.67,4,14.14l0,.44c.26,6.49.47,13.27.69,20.11.33,10.71.67,21.78,1.24,32,1.1,20,1.07,22.52,1,32C773.5,390.35,773.44,395.49,773.44,403.61Z"/><path class="cls-1" d="M377.13,284.6a20.22,20.22,0,0,0,11.24,14.64c6.2,2.78,13.46,1.54,21-3.58,12.18-7.22,13-10.17,15-22.92,2.15-14-2-25-12.38-32.6-11.13-8.16-20.45-11.38-30.25-10.42-10.31,1-20.23,2.52-28.19,10-1.5,1.4-2.91,2.92-4.4,4.52a61.39,61.39,0,0,1-9.86,9.12l-5.88,4.12v-7.18c0-1.65-.06-3.1-.13-4.49-.07-1.71-.15-3.35-.1-5.13-5.67,0-11.34.19-17.33.37-12.26.38-24.94.77-37.65-.38H278a5.31,5.31,0,0,0,0,.64c-.06,1.67-.12,3.15-.17,4.52a108.07,108.07,0,0,0,0,13c.68,11,.61,22.1.55,32.86q0,4.39,0,8.77c0,17.17.32,34.64.65,51.53.4,20.84.81,42.38.57,63.61-.06,5.6-.12,12.1,0,18.49,0,1.23,0,2.34,0,3.36,0,1.85,0,4.15.31,4.7a14.21,14.21,0,0,0,3.26.3h.31c1.42,0,3.62,0,6.32.07,8.2.11,21.94.3,30-.07l2.05-.08a64,64,0,0,0,7.67-.56,19.84,19.84,0,0,0,.18-2.41l0-1c.5-9.84,1.07-22.79,1-35.73q0-7.9-.12-15.81c-.2-22.6-.4-46,.73-69,.22-4.55,1-11.08,5.27-15.5a14.44,14.44,0,0,1,3.47-3.55,3.55,3.55,0,0,0,.79-.71c6.1-7,14.13-11.17,21.9-15.26,1.85-1,3.7-2,5.53-3,1.17-.65,3.92-2.17,6.48-.56C376.42,280.22,377.2,282,377.13,284.6Z"/><path class="cls-1" d="M402.16,351.37a5.69,5.69,0,0,0,2,4.67,15.08,15.08,0,0,0,11.46,4.11c4.21-.38,8.23-2.76,11.31-6.69,9.19-11.72,6.7-27.13,3.41-32.4l-.31-.6c-.69-1.67-6.43-5.87-8.81-6.14-1.47-.16-2.55-.34-3.49-.49a21.21,21.21,0,0,0-5.4-.33,17.65,17.65,0,0,0-7.64,2.15l-1.09.57c-3.93,2-10.52,5.49-12.88,8.54l-.37.48-.51.34-.85.59c-1,.73-2.93,2.08-5.17.93s-2.33-3.35-2.33-6.33c0-.87.05-1.84.1-2.85a35.51,35.51,0,0,0,0-4.48l-1.13.1a118.89,118.89,0,0,1-29.69-.22c0,.07,0,.14,0,.21a31.73,31.73,0,0,1,.07,5.75,32.11,32.11,0,0,0,0,3.78c.85,12.23,1,24.66,1.12,36.69.07,6.11.14,12.23.29,18.32.22,8.37,0,16.81-.2,25-.29,11.13-.58,22.64.25,33.81v.34a42.5,42.5,0,0,0,.1,5.36,46,46,0,0,0,5.06-.05c.52,0,1.48,0,2.52,0,1.23,0,3.08,0,3.66-.07l.4,0,6.12,0c3,0,5.43,0,9.17,0H382a56.88,56.88,0,0,0,6.14-.15c.1-.84.09-2.36.09-3.74,0-3.91-.12-8.2-.23-12.62-.25-10-.51-20.28.23-29.05,0-13.24,0-26.92-.52-39.62-.2-4.78,1.29-8,5-10.6.93-.67,3.79-2.73,6.68-1.22C401.28,346.39,402.21,348.41,402.16,351.37Z"/></svg>